<?xml version="1.0" encoding="utf-8"?>
<!-- Generator: Adobe Illustrator 22.0.0, SVG Export Plug-In . SVG Version: 6.00 Build 0)  -->
<svg version="1.1" xmlns="http://www.w3.org/2000/svg" xmlns:xlink="http://www.w3.org/1999/xlink" x="0px" y="0px"
	 viewBox="0 0 347 176.6" style="enable-background:new 0 0 347 176.6;" xml:space="preserve">
<style type="text/css">
	.st0{fill:#222222;}
	.st1{fill:#14C8A3;}
	.st2{fill:#FFCD00;}
</style>
<g id="Layer_1">
	<g id="Layer_4">
	</g>
	<g>
		<g>
			<path class="st0" d="M124.9,109.4c2.3,2.3,5,4,8.1,5.4c3.1,1.3,6.4,2,9.9,2c3.2,0,6.1-0.5,8.9-1.6c2.8-1,5.2-2.6,7.4-4.7
				c0.7-0.7,1.2-1.4,1.6-2.2c0.4-0.8,0.5-1.7,0.5-2.6c0-0.8-0.1-1.5-0.4-2.2s-0.7-1.3-1.2-1.8c-0.5-0.5-1-0.9-1.7-1.2
				c-0.6-0.3-1.2-0.4-1.9-0.4c-0.9,0-1.7,0.2-2.3,0.5c-0.6,0.4-1.3,0.8-2,1.4c-1.2,1.1-2.6,1.8-4,2.3c-1.5,0.5-3,0.7-4.7,0.7
				c-2,0-3.8-0.3-5.4-1c-1.7-0.7-3.1-1.6-4.3-2.9c-1.2-1.2-2.2-2.7-2.9-4.3c-0.7-1.6-1-3.4-1-5.3V76.4h18.2c0.8,0,1.6-0.1,2.3-0.4
				c0.7-0.3,1.3-0.7,1.8-1.2c0.5-0.5,0.9-1.1,1.2-1.8c0.3-0.7,0.5-1.4,0.5-2.2c0-0.8-0.1-1.6-0.5-2.3c-0.3-0.7-0.7-1.3-1.2-1.8
				c-0.5-0.5-1.1-0.9-1.8-1.2c-0.7-0.3-1.5-0.5-2.3-0.5h-18.2v-8.4c0-0.8-0.2-1.6-0.5-2.3c-0.3-0.7-0.7-1.3-1.3-1.9
				c-0.5-0.5-1.2-1-1.9-1.2c-0.7-0.3-1.5-0.4-2.3-0.4c-0.8,0-1.5,0.1-2.2,0.5c-0.7,0.3-1.3,0.7-1.8,1.2c-0.5,0.5-1,1.1-1.3,1.8
				c-0.3,0.7-0.5,1.5-0.5,2.3h-0.1v34.8c0,3.5,0.6,6.8,2,9.9C120.8,104.5,122.6,107.1,124.9,109.4z"/>
			<path class="st0" d="M181.9,114.7c3,1.3,6.1,1.9,9.5,1.9c3.4,0,6.5-0.6,9.3-1.9c2.9-1.3,5.3-3.1,7.4-5.3c2.1-2.2,3.7-4.9,4.9-7.8
				c1.2-3,1.8-6.1,1.8-9.5V71.6c0-0.8-0.1-1.5-0.4-2.2c-0.3-0.7-0.7-1.3-1.2-1.8c-0.5-0.5-1.1-0.9-1.8-1.2c-0.7-0.3-1.5-0.4-2.2-0.4
				c-0.8,0-1.5,0.1-2.2,0.4c-0.7,0.3-1.3,0.7-1.9,1.2c-0.6,0.5-1,1.1-1.3,1.8c-0.3,0.7-0.5,1.5-0.5,2.2v20.5c0,1.8-0.2,3.5-0.8,5.1
				c-0.5,1.6-1.3,2.9-2.4,4.1c-1,1.2-2.3,2.1-3.7,2.8c-1.5,0.7-3.1,1-4.9,1c-1.8,0-3.5-0.3-5.1-1c-1.6-0.7-2.9-1.6-4.1-2.7
				c-1.2-1.2-2.1-2.5-2.7-4.1c-0.7-1.6-1-3.3-1-5.1V71.6c0-0.8-0.1-1.5-0.5-2.2c-0.3-0.7-0.7-1.3-1.2-1.8c-0.5-0.5-1.1-0.9-1.8-1.2
				c-0.7-0.3-1.5-0.4-2.3-0.4c-0.8,0-1.5,0.1-2.2,0.4c-0.7,0.3-1.3,0.7-1.8,1.2c-0.5,0.5-0.9,1.1-1.2,1.8c-0.3,0.7-0.4,1.5-0.4,2.2
				h0v20.5c0,3.4,0.6,6.6,1.9,9.5c1.2,3,3,5.6,5.2,7.8C176.3,111.7,178.9,113.5,181.9,114.7z"/>
			<path class="st0" d="M266.2,101.7c-0.5-0.5-1-0.9-1.7-1.2c-0.6-0.3-1.2-0.4-1.9-0.4c-0.9,0-1.7,0.2-2.3,0.5
				c-0.6,0.4-1.3,0.8-2,1.4c-1.2,1.1-2.6,1.8-4,2.3c-1.5,0.5-3,0.7-4.7,0.7c-2,0-3.8-0.3-5.4-1c-1.7-0.7-3.1-1.6-4.3-2.9
				c-1.2-1.2-2.2-2.7-2.9-4.3c-0.7-1.6-1-3.4-1-5.3V76.4h18.2c0.8,0,1.6-0.1,2.3-0.4c0.7-0.3,1.3-0.7,1.8-1.2
				c0.5-0.5,0.9-1.1,1.2-1.8c0.3-0.7,0.5-1.4,0.5-2.2c0-0.8-0.1-1.6-0.5-2.3c-0.3-0.7-0.7-1.3-1.2-1.8c-0.5-0.5-1.1-0.9-1.8-1.2
				c-0.7-0.3-1.5-0.5-2.3-0.5h-18.2v-8.4c0-0.8-0.2-1.6-0.5-2.3c-0.3-0.7-0.7-1.3-1.3-1.9c-0.5-0.5-1.2-1-1.9-1.2
				c-0.7-0.3-1.5-0.4-2.3-0.4c-0.8,0-1.5,0.1-2.2,0.5c-0.7,0.3-1.3,0.7-1.8,1.2c-0.5,0.5-1,1.1-1.3,1.8c-0.3,0.7-0.5,1.5-0.5,2.3
				H224v34.8c0,3.5,0.6,6.8,2,9.9c1.3,3.1,3.2,5.7,5.4,8c2.3,2.3,5,4,8.1,5.4c3.1,1.3,6.4,2,9.9,2c3.2,0,6.1-0.5,8.9-1.6
				c2.8-1,5.2-2.6,7.4-4.7c0.7-0.7,1.2-1.4,1.6-2.2c0.4-0.8,0.5-1.7,0.5-2.6c0-0.8-0.1-1.5-0.4-2.2
				C267.1,102.8,266.7,102.2,266.2,101.7z"/>
			<path class="st0" d="M315.7,101.7c-0.5-0.5-1-0.9-1.7-1.2c-0.6-0.3-1.2-0.4-1.9-0.4c-0.9,0-1.7,0.2-2.3,0.5
				c-0.6,0.4-1.3,0.8-2,1.4c-1.2,1.1-2.6,1.8-4,2.3c-1.5,0.5-3,0.7-4.7,0.7c-2,0-3.8-0.3-5.4-1c-1.7-0.7-3.1-1.6-4.3-2.9
				c-1.2-1.2-2.2-2.7-2.9-4.3c-0.7-1.6-1-3.4-1-5.3V76.4h18.2c0.8,0,1.6-0.1,2.3-0.4c0.7-0.3,1.3-0.7,1.8-1.2
				c0.5-0.5,0.9-1.1,1.2-1.8c0.3-0.7,0.5-1.4,0.5-2.2c0-0.8-0.1-1.6-0.5-2.3c-0.3-0.7-0.7-1.3-1.2-1.8c-0.5-0.5-1.1-0.9-1.8-1.2
				c-0.7-0.3-1.5-0.5-2.3-0.5h-18.2v-8.4c0-0.8-0.2-1.6-0.5-2.3c-0.3-0.7-0.7-1.3-1.3-1.9c-0.5-0.5-1.2-1-1.9-1.2
				c-0.7-0.3-1.5-0.4-2.3-0.4s-1.5,0.1-2.2,0.5c-0.7,0.3-1.3,0.7-1.8,1.2c-0.5,0.5-1,1.1-1.3,1.8c-0.3,0.7-0.5,1.5-0.5,2.3h-0.1
				v34.8c0,3.5,0.6,6.8,2,9.9c1.3,3.1,3.2,5.7,5.4,8c2.3,2.3,5,4,8.1,5.4c3.1,1.3,6.4,2,9.9,2c3.2,0,6.1-0.5,8.9-1.6
				c2.8-1,5.2-2.6,7.4-4.7c0.7-0.7,1.2-1.4,1.6-2.2c0.4-0.8,0.5-1.7,0.5-2.6c0-0.8-0.1-1.5-0.4-2.2
				C316.6,102.8,316.2,102.2,315.7,101.7z"/>
			<path class="st0" d="M333.8,67.6c-0.5-0.5-1.1-0.9-1.8-1.2c-0.7-0.3-1.4-0.5-2.2-0.5c-0.8,0-1.6,0.1-2.3,0.5
				c-0.7,0.3-1.3,0.7-1.9,1.2c-0.5,0.5-1,1.1-1.3,1.8c-0.3,0.7-0.5,1.5-0.5,2.2v39.1c0,0.8,0.1,1.5,0.5,2.2c0.3,0.7,0.7,1.3,1.3,1.8
				c0.5,0.5,1.2,0.9,1.9,1.2c0.7,0.3,1.5,0.4,2.2,0.4c0.8,0,1.5-0.1,2.2-0.4c0.7-0.3,1.3-0.7,1.8-1.2c0.5-0.5,0.9-1.1,1.2-1.8
				c0.3-0.7,0.4-1.5,0.4-2.2V71.7c0-0.7-0.1-1.5-0.4-2.2C334.7,68.8,334.3,68.2,333.8,67.6z"/>
			<path class="st1" d="M335.5,52c-0.4-0.7-0.8-1.4-1.4-2c-0.6-0.6-1.2-1-2-1.3c-0.7-0.3-1.6-0.5-2.4-0.5c-0.9,0-1.7,0.2-2.5,0.5
				c-0.7,0.3-1.4,0.8-2,1.3s-1,1.2-1.3,2c-0.3,0.7-0.5,1.6-0.5,2.4c0,0.9,0.2,1.7,0.5,2.5c0.3,0.7,0.8,1.4,1.3,2s1.2,1,2,1.3
				c0.7,0.3,1.6,0.5,2.5,0.5c0.9,0,1.7-0.2,2.4-0.5c0.7-0.3,1.4-0.8,2-1.3c0.6-0.6,1-1.2,1.4-2c0.4-0.7,0.5-1.6,0.5-2.5
				C336,53.6,335.8,52.8,335.5,52z"/>
			<path class="st0" d="M137.5,153.7c-0.3,0-0.5,0.1-0.7,0.2c-0.2,0.1-0.4,0.2-0.6,0.4c-0.9,0.8-1.8,1.3-2.8,1.7
				c-1,0.4-2.1,0.5-3.2,0.5c-1.3,0-2.5-0.2-3.6-0.7c-1.1-0.4-2.1-1.1-2.9-1.9c-0.8-0.8-1.5-1.7-2-2.8c-0.5-1.1-0.7-2.3-0.7-3.5v-9.3
				h11.5c0.5,0,0.9-0.2,1.3-0.5c0.3-0.3,0.5-0.7,0.5-1.2s-0.2-0.9-0.5-1.2c-0.4-0.4-0.7-0.5-1.2-0.5H121v-5.9c0-0.5-0.2-0.9-0.5-1.2
				c-0.4-0.3-0.8-0.5-1.3-0.5c-0.5,0-0.9,0.2-1.2,0.5c-0.4,0.4-0.5,0.7-0.5,1.2h0v18.6c0,1.8,0.3,3.4,1,4.9c0.7,1.5,1.6,2.8,2.7,3.9
				c1.1,1.1,2.5,2,4,2.6c1.5,0.6,3.2,1,5,1c1.6,0,3.1-0.2,4.5-0.8c1.4-0.5,2.6-1.3,3.7-2.3c0.2-0.2,0.4-0.4,0.5-0.7
				c0.1-0.2,0.2-0.5,0.2-0.8c0-0.5-0.1-0.9-0.5-1.2C138.3,153.9,137.9,153.7,137.5,153.7z"/>
			<path class="st0" d="M162.3,138.3c-1.2-1.2-2.5-2.1-4-2.7c-1.6-0.7-3.2-1-5-1c-1.8,0-3.4,0.3-4.9,1c-1.6,0.7-2.9,1.6-4,2.7
				c-1.2,1.1-2.1,2.5-2.7,4c-0.7,1.5-1,3.2-1,5s0.3,3.4,1,4.9c0.7,1.5,1.6,2.8,2.7,4c1.2,1.2,2.5,2.1,4,2.7c1.5,0.7,3.2,1,4.9,1
				c1.8,0,3.4-0.3,5-1c1.6-0.7,2.9-1.6,4-2.7c1.1-1.1,2-2.5,2.7-4c0.7-1.5,1-3.2,1-4.9c0-1.8-0.3-3.4-1-5
				C164.3,140.8,163.4,139.5,162.3,138.3z M161.7,150.9c-0.5,1.1-1.1,2.1-2,2.9c-0.8,0.9-1.8,1.5-2.9,2c-1.1,0.5-2.3,0.7-3.7,0.7
				c-1.3,0-2.4-0.2-3.6-0.7c-1.1-0.5-2.1-1.1-2.9-2c-0.9-0.9-1.5-1.8-2-2.9c-0.5-1.1-0.7-2.3-0.7-3.5s0.2-2.4,0.7-3.6
				c0.5-1.1,1.2-2.1,2-2.9c0.8-0.9,1.8-1.5,2.9-2c1.1-0.5,2.3-0.7,3.6-0.7c1.3,0,2.5,0.2,3.7,0.7c1.1,0.5,2.1,1.2,2.9,2
				c0.8,0.9,1.5,1.8,2,2.9c0.5,1.1,0.7,2.3,0.7,3.6C162.4,148.6,162.2,149.8,161.7,150.9z"/>
			<path class="st0" d="M191,134.6c-0.5,0-0.9,0.1-1.2,0.5c-0.4,0.4-0.5,0.8-0.5,1.3v11.5c0,1.2-0.2,2.3-0.6,3.4
				c-0.4,1-0.9,2-1.6,2.8c-0.7,0.8-1.5,1.4-2.5,1.9c-1,0.5-2.1,0.7-3.3,0.7c-1.2,0-2.3-0.2-3.3-0.7c-1-0.5-1.9-1.1-2.7-1.9
				c-0.7-0.8-1.3-1.7-1.8-2.8s-0.6-2.2-0.6-3.4v-11.5c0-0.5-0.1-0.9-0.5-1.2c-0.4-0.3-0.7-0.5-1.2-0.5c-0.5,0-0.9,0.2-1.2,0.5
				c-0.3,0.3-0.5,0.7-0.5,1.2h-0.1v11.5c0,1.7,0.3,3.3,0.9,4.7c0.6,1.5,1.5,2.8,2.5,3.9c1.1,1.1,2.3,2,3.8,2.6c1.5,0.6,3,1,4.7,1
				c1.7,0,3.2-0.3,4.6-1c1.4-0.6,2.6-1.5,3.7-2.6c1-1.1,1.8-2.4,2.4-3.9c0.6-1.5,0.9-3.1,0.9-4.7v-11.5c0-0.5-0.2-0.9-0.5-1.3
				C191.9,134.8,191.5,134.6,191,134.6z"/>
			<path class="st0" d="M212.6,136.3c0-0.5-0.2-0.9-0.5-1.2c-0.3-0.3-0.7-0.5-1.3-0.5h-0.2c-1.8,0-3.5,0.4-5.1,1.1
				c-1.6,0.7-3,1.7-4.2,2.9c-1.2,1.2-2.1,2.6-2.8,4.2c-0.7,1.6-1,3.3-1,5.1l0,0V158c0,0.5,0.2,0.9,0.5,1.2c0.4,0.3,0.8,0.5,1.3,0.5
				c0.5,0,0.9-0.2,1.2-0.5c0.3-0.3,0.5-0.7,0.5-1.2v-10.1c0-1.3,0.3-2.6,0.8-3.8c0.5-1.2,1.2-2.2,2.1-3.1c0.9-0.9,1.9-1.6,3.1-2.1
				c1.2-0.5,2.4-0.8,3.7-0.8h0.2c0.5,0,0.9-0.2,1.3-0.5C212.4,137.2,212.6,136.8,212.6,136.3z"/>
			<path class="st0" d="M230,147.3c-0.6-0.7-1.4-1.2-2.3-1.6c-0.9-0.4-1.8-0.6-2.8-0.6h-5.4c-0.5,0-1-0.1-1.3-0.3
				c-0.4-0.2-0.8-0.5-1.1-0.8c-0.3-0.3-0.6-0.7-0.7-1.1c-0.2-0.4-0.3-0.9-0.3-1.4c0-0.5,0.1-0.9,0.3-1.3c0.2-0.4,0.4-0.8,0.7-1.1
				c0.3-0.3,0.7-0.6,1.1-0.8c0.4-0.2,0.9-0.3,1.4-0.3h9.5c0.5,0,0.9-0.1,1.2-0.5c0.3-0.3,0.5-0.7,0.5-1.3c0-0.5-0.1-1-0.5-1.2
				c-0.4-0.3-0.7-0.4-1.2-0.4h-9.5c-1,0-1.9,0.2-2.7,0.5c-0.9,0.4-1.6,0.9-2.2,1.5c-0.6,0.6-1.1,1.3-1.5,2.2
				c-0.4,0.8-0.5,1.7-0.5,2.7c0,1,0.2,1.9,0.5,2.7c0.4,0.9,0.8,1.6,1.5,2.3c0.6,0.7,1.4,1.2,2.2,1.6c0.9,0.4,1.8,0.6,2.8,0.6h5.1
				c0.5,0,1,0.1,1.5,0.3c0.5,0.2,0.9,0.4,1.3,0.7c0.4,0.3,0.7,0.7,0.9,1.1c0.2,0.5,0.4,1,0.4,1.6c0,0.6-0.1,1.2-0.4,1.6
				c-0.2,0.5-0.5,0.9-0.9,1.2c-0.4,0.3-0.8,0.6-1.3,0.8c-0.5,0.2-1,0.3-1.5,0.3v0h-11c-0.5,0-0.9,0.2-1.2,0.5
				c-0.3,0.3-0.5,0.7-0.5,1.2c0,0.5,0.1,1,0.5,1.3c0.3,0.3,0.7,0.5,1.2,0.5h11.3c1,0,2-0.2,2.8-0.6c0.9-0.4,1.6-1,2.3-1.6
				c0.6-0.6,1.1-1.4,1.5-2.3c0.4-0.9,0.5-1.8,0.5-2.8s-0.2-1.9-0.5-2.8C231.2,148.7,230.7,148,230,147.3z"/>
		</g>
	</g>
</g>
<g id="Layer_4_1_">
	<path class="st2" d="M101.8,70.6c-1.6-4.7-3.9-9.1-6.9-13.1c-2.5-3.3-5.4-6.1-8.6-8.6c-0.8-0.6-1.5-1.1-2.4-1.7
		c-1.1-0.7-2.2-1.4-3.3-2c-6.7-3.8-14.2-5.8-22-5.8c-6.8,0-13.2,1.5-19.3,4.4l-0.2,0.1c-0.3,0.1-0.6,0.3-0.9,0.4
		c-0.1,0-0.1,0.1-0.1,0.1c-5.2,2.7-9.7,6.3-13.4,10.7l0,0c-0.6,0.7-1.3,1.5-1.9,2.3c-3,4-5.4,8.4-6.9,13.1
		c-1.5,4.6-2.3,9.4-2.3,14.3v0.5c0.1,4.7,0.8,9.4,2.3,13.8c1,3.1,2.4,6.1,4.1,8.9c0.9,1.4,1.8,2.8,2.8,4.2l1.7,2.3l1,1.4l23.7,30.9
		l0.4,0.5l2.2,2.8l7,9.1l0,0.1l0-0.1l0.1,0.1l6.9-9.1l0.1-0.1l0.3-0.3L79,133.1l12.2-15.9l0.9-1.2l0.9-1.2l0.1-0.1l1.6-2.1l0.2-0.3
		c3-4,5.4-8.4,6.9-13.1c1.5-4.5,2.3-9.1,2.3-13.8v-0.5C104.1,80,103.3,75.2,101.8,70.6z M24.6,87.3c0-0.3,0-0.6,0.1-0.9
		c0.1,0,0.3-0.1,0.3-0.1c0,0.3,0,0.6,0,1H24.6z M25.3,87.3c0-0.3,0-0.7,0-1c0.1,0,0.3,0.1,0.3,0.1c0,0.3,0,0.6,0,0.9H25.3z
		 M81.4,111.1c0-1.2,0-2.4,0-3.5c0.6,0,1.2,0,1.8,0c0,1.2,0,2.4,0,3.5C82.6,111.2,82,111.2,81.4,111.1L81.4,111.1
		C81.4,111.1,81.4,111.1,81.4,111.1z M81.7,99.5c0.1-0.5,1-0.5,1.1,0c0.1,0.8,0,1.6,0,2.4h-1.1C81.7,101.1,81.6,100.3,81.7,99.5z
		 M86.9,112.1c-0.2-0.1-0.2-0.2,0-0.3C87,112,87,112,86.9,112.1z M87,111.2c0.3-0.2,0.3,0.4,0.1,0.4C86.8,111.6,86.9,111.3,87,111.2
		z M102.2,84c0,0.4,0,0.7,0,1c0,0.6-0.1,1.2-0.1,1.8c0,0.1,0,0.1,0,0.2c-0.8,7.9-3.9,15.4-9.3,22.6c-0.3-0.7-0.6-1.4-0.9-2.2
		c-0.2-0.6-0.5-1.2-0.5-1.8c0.1-0.2,0.2-0.3,0.4-0.5c-0.2-0.2-0.3-0.4-0.5-0.6c0,0.7,0,1.5-0.3,2.2c-0.3,0.8-0.7,1.6-1,2.4
		c-0.3,0.8-0.6,1.6-1.1,2.3c-0.4,0.6-0.9,1.1-1.4,1.5c-0.2-0.3-0.5-0.6-0.4-0.9c0.2-0.8,0.5-1.6,0.7-2.4c-0.2,0.4-0.5,0.8-0.7,1.2
		c-0.2-0.4-0.3-0.7-0.4-1.2h-0.2c-0.1,0.3-0.2,0.6-0.3,0.8c-0.3-0.8-0.2-1.8-0.1-2.7c0.1-0.5,0.1-1.1,0.3-1.6
		c0.4-0.2,0.8-0.4,1.2-0.6c-0.3-0.1-0.7-0.1-1-0.2c-0.2-0.6-0.4-1.2-0.5-1.8c-0.1-0.6-0.2-1.1-0.4-1.7c-0.1,0.6-0.2,1.2-0.6,1.7
		c-0.4-0.8-0.5-1.7-0.5-2.5c0-0.9-0.1-1.8,0.1-2.8c0-0.3,0.1-0.5,0.1-0.8c0,0,0-0.1-0.1-0.1c-0.1-0.4-0.1-1.5-0.2-1.9
		c-0.1,0.4-0.2,1.1-0.3,1.5c-0.2-0.1-0.4-0.1-0.5-0.1c0.1-0.3,0.2-0.6,0.3-0.9c-0.2-0.8-0.8-1.4-1.2-2c-0.3-0.6,0-1.3-0.1-2
		c-0.1-0.7-0.1-1.4-0.2-2.1c-0.3,0.4-0.2,0.9-0.3,1.4c0,0.4-0.2,0.8-0.1,1.3c0.1,0.5,0.1,1.1-0.2,1.6c-0.4,0.6-0.8,1.2-1.2,1.8
		c0.1,0.3,0.2,0.6,0.2,0.9c-0.1,0-0.3,0.1-0.4,0.1c0-0.5-0.1-1-0.1-1.5c-0.2,0.6-0.2,1.3-0.4,1.9c-0.2,0.6,0.1,1.2,0.1,1.8
		c0,1.2,0,2.4-0.2,3.6c0,0.4-0.3,0.6-0.5,0.8c-0.1-0.6-0.2-1.2-0.4-1.7c-0.2,0.6-0.3,1.1-0.4,1.7c-0.1,0.6-0.3,1.2-0.5,1.8
		c-0.3,0.1-0.7,0.1-1,0.2c0.4,0.2,0.8,0.4,1.2,0.6c0.1,0.2,0.1,0.4,0.1,0.5c0.1,1.1,0.3,2.2,0.2,3.3c0,0.1,0,0.3,0,0.4
		c-0.1-0.2-0.2-0.3-0.3-0.5c-0.1-0.1-0.1-0.2-0.1-0.3h-0.2c0,0.1,0,0.1,0,0.2c0,0.2-0.1,0.5-0.2,0.7c-0.1,0.1-0.3,0.2-0.4,0.2
		c-0.2-0.4-0.4-0.8-0.6-1.2c0.2,0.7,0.5,1.4,0.7,2.1c0-0.2,0-0.5-0.1-0.7c0.1,0.1,0.2,0.2,0.3,0.2c0,0.3,0.1,0.5,0.1,0.8
		c-0.1,0-0.2,0-0.3-0.1c-0.1,0.2-0.1,0.5-0.2,0.7v0c-0.1,0.7-0.2,1.5-0.3,2.2c-0.3,0.1-0.5,0.1-0.8,0.2c0.4,0.4,0.8,0.9,1,1.4
		c0.3,1,0.2,2,0.2,3.1c0,1.4,0,2.7,0,4.1c0,0.3-0.1,0.6-0.2,0.8c-0.1,0.1-0.2,0.1-0.2,0.2c-0.1-0.2-0.1-0.4-0.2-0.5
		c-0.3-0.3-0.6-0.4-1-0.6c0-0.7,0-1.5-0.5-2c-0.3-0.4-0.8-0.4-1.2-0.6c-0.4-0.2-0.7-0.6-1.1-0.9c-0.8-0.1-1.6,0-2.4-0.1
		c-0.1-0.3-0.1-0.5-0.2-0.8c-0.1,0.3-0.2,0.6-0.2,0.9c-0.6,0-1.2,0-1.7,0c-0.1-0.8-0.2-1.6-0.3-2.4c-0.1-0.8-0.5-1.6-1.2-2.2
		c-0.4-0.4-0.9-0.6-1.3-0.9c-0.2-0.5,0.4-1.1,0.1-1.6c-0.3-0.5-0.5-1.1-0.6-1.6c-0.1,0.3-0.1,0.6-0.2,0.9c-0.1,0.4-0.4,0.7-0.5,1
		c0,0.5,0.3,0.9,0.2,1.4c-0.3,0.2-0.6,0.4-0.9,0.6c-0.7,0.5-1.3,1.2-1.4,2c-0.1,0.4-0.2,0.8-0.4,1.3c-0.1-0.3-0.2-0.5-0.3-0.8
		c-0.4,0.3-0.8,0.6-0.9,1c-0.1,0.3-0.1,0.6-0.2,0.9c-0.6,0-1.1,0-1.7,0c-0.1-0.4-0.1-0.7-0.2-1.1c-0.1,0.4-0.1,0.7-0.1,1.1
		c-0.7,0-1.4,0.1-2,0.1c0-0.6-0.4-1-0.7-1.6c-0.1-0.5,0-1.1-0.2-1.6c-0.2-0.7-0.2-1.4-0.3-2.1c-0.1,1.1-0.4,2.3-0.5,3.4
		c-0.1,0.7-0.7,1.2-0.7,2c-0.5,0-1,0-1.4-0.2c-0.2-0.1-0.3,0-0.4,0.1c0-0.3,0-0.6,0-1c-0.2,0.3-0.3,0.6-0.4,0.9
		c-0.6-0.1-0.8-0.7-1.1-1.1c-0.2-0.4-0.2-0.9-0.2-1.3c0-0.4-0.2-0.8-0.3-1.2c-0.1-0.5-0.1-1-0.1-1.4h-0.2c0,0.6,0,1.3-0.2,1.9
		c-0.2,0.5-0.2,0.9-0.2,1.4c0,0.4-0.2,0.7-0.4,1c-0.3-0.9-0.1-1.9-0.4-2.9c-0.2-0.5-0.2-1.1-0.2-1.6c0-0.7-0.5-1.4-0.5-2.2
		c0-1,0-2,0-2.9c0-0.7,0.1-1.4,0-2.1c-0.3-2,0.1-4-0.2-6c-0.1-0.9,0.1-1.7-0.1-2.6c-0.1-0.5-0.2-0.9-0.2-1.4c0-0.9-0.1-1.8-0.1-2.6
		c0-1.5,0-3,0-4.5c0-0.7,0.3-1.3,0.5-1.8c-0.5-0.3-1.1-0.6-1.6-0.9c0.5-0.3,1.2-0.5,1.6-1c0.1-0.8,0-1.5,0-2.3c0-0.5,0.1-1,0-1.4
		c-0.3-0.9-0.2-1.7-0.2-2.6c-0.1,0-0.2,0-0.2,0c0,0.8,0,1.7-0.1,2.5c-0.4-0.9-0.5-2-0.7-3c-0.3-1.2-0.2-2.5-0.2-3.8h-0.2
		c0,1.5,0.1,3-0.3,4.4c-0.2-0.7-0.4-1.4-0.4-2.1c-0.1-1.1,0-2.1-0.1-3.2c-0.3,1.2,0.1,2.4-0.3,3.6c-0.1-0.7-0.1-1.5-0.1-2.3h-0.2
		c0.1,1.6-0.1,3.3-0.3,4.9c-0.1,0-0.3,0-0.4,0c-0.1-1-0.2-2-0.4-3c-0.2-1.7-0.3-3.3-0.6-5c0-0.4-0.2-0.9-0.1-1.3
		c0.2-0.5,0.6-0.8,0.8-1.4c-0.1-0.2-0.3-0.4-0.5-0.5c-0.2,0-0.4,0-0.6,0.1c-0.2-1.2-0.2-2.5-0.4-3.7c-0.1-0.9,0-1.7-0.1-2.6
		c0-0.9-0.1-1.8,0-2.7c0.1-0.3,0.1-0.7,0-1c-0.3-0.8-0.2-1.6-0.2-2.4h-0.3c0,0.8,0.1,1.6-0.2,2.4c-0.1,0.4-0.1,0.8,0,1.2
		c0.2,1,0,2,0,3c0,2-0.2,3.9-0.4,5.9c-0.4-0.1-0.9-0.2-1.2,0.2c0.1,0.5,0.5,0.9,0.7,1.3c0.3,0.4,0.1,1,0.1,1.5
		c-0.4,2.7-0.6,5.4-1,8.2c-0.1-0.1-0.2-0.3-0.3-0.5c-0.4-1.5-0.3-3.1-0.4-4.7c-0.1,0.8-0.1,1.6-0.1,2.4c-0.1-0.3-0.2-0.7-0.2-1.1
		c0-0.9,0.1-1.7-0.1-2.6c-0.2,1.1,0,2.3-0.2,3.4c0,0.6-0.2,1.3-0.4,1.8c-0.1-0.5-0.2-1-0.3-1.5c-0.1-1,0-2-0.1-3
		c-0.3,0.7-0.1,1.4-0.1,2.1c0,1.1-0.3,2.1-0.5,3.2c-0.1,0.5-0.2,1-0.4,1.4c-0.1-0.9,0-1.8-0.1-2.7c-0.3,0.7-0.1,1.4-0.2,2.1
		c-0.1,0.5-0.3,1-0.2,1.6c0.2,1,0,2-0.1,2.9c0.5,0.4,1.1,0.7,1.7,1c-0.5,0.4-1.1,0.7-1.6,1.1c0.3,0.5,0.6,1,0.6,1.6c0,1.5,0,3,0,4.5
		c0.1,1.2-0.2,2.3-0.1,3.5c-0.3-0.4-0.6-0.8-0.6-1.3c0-0.6-0.2-1.3-0.2-1.9c0-0.7-0.1-1.4-0.1-2.1c0-0.5,0-1-0.1-1.4
		c-0.5,0.5-0.3,1.1-0.3,1.7c0,1.4-0.2,2.8-0.3,4.2c-0.2,0.5-0.5,1-0.8,1.5c-1.5,2.5-3,5-4.4,7.5c-0.1-0.7-0.2-1.4-0.2-2.2
		c0-1.6,0-3.1,0-4.7c-0.1-0.9,0.6-1.6,0.7-2.5c-0.2,0-0.4,0-0.5-0.1c0-0.7,0.1-1.4,0.1-2.1c-0.4-0.9-0.9-1.7-1.3-2.5
		c-0.2-0.4-0.1-0.9-0.2-1.3c0-0.8-0.1-1.6-0.3-2.4c-0.2,0.8-0.2,1.6-0.2,2.4c-0.2-0.4-0.4-0.8-0.6-1.2c-0.3-0.4-0.7-0.7-1.1-1
		c0.1-0.6-0.2-1.1-0.3-1.6c0-0.6,0.3-1.2,0.6-1.7c-0.3-0.3-0.7-0.5-0.7-0.9c0-0.8,0.6-1.6,0.4-2.4c-0.3-0.7-1.1-1.1-1.5-1.8
		c-0.3-0.9,0-1.9,0-2.8c-0.1-0.8-0.3-1.5-0.3-2.3h-0.1c0,0.8-0.2,1.5-0.3,2.3c0.1,0.9,0.3,1.9,0,2.8c-0.3,0.7-1.1,1.1-1.5,1.8
		c-0.1,0.8,0.5,1.6,0.4,2.4c0,0.4-0.4,0.7-0.7,0.9c0.3,0.5,0.5,0.9,0.6,1.5c0,0.4-0.1,0.8-0.2,1.1c-0.1,0.3-0.2,0.6-0.4,0.9
		c-0.3,0.3-0.6,0.6-0.8,0.9c-0.2,0.3-0.4,0.7-0.6,1.1c0-0.8-0.1-1.5-0.2-2.3c-0.2,0.6-0.3,1.2-0.3,1.8c0,0.5,0,1-0.1,1.5
		c-0.2,0.9-0.9,1.6-1.3,2.5c-0.1,0.3-0.1,0.5-0.1,0.8c0,0.5,0.1,1,0.1,1.6c-0.2,0-0.4,0-0.5,0c0.1,0.9,0.8,1.6,0.8,2.5
		c0,1,0,1.9,0,2.9c-0.1-0.2-0.2-0.3-0.2-0.5c0-0.1-0.1-0.1-0.1-0.2c0,0,0-0.1-0.1-0.1c0-0.1-0.1-0.2-0.1-0.2c0,0-0.1-0.1-0.1-0.2
		c0-0.1-0.1-0.2-0.1-0.3c-0.1-0.1-0.1-0.2-0.1-0.3c-0.1-0.1-0.1-0.3-0.2-0.4l0,0c0,0,0,0,0,0l-0.2-0.4c0,0-0.1-0.1-0.1-0.2
		c0-0.1-0.1-0.2-0.1-0.3c0-0.1-0.1-0.2-0.1-0.3c0-0.1-0.1-0.2-0.1-0.3l0-0.1c0-0.1-0.1-0.3-0.2-0.4v0c0,0,0,0,0-0.1
		c-0.1-0.1-0.1-0.3-0.2-0.4c-0.1-0.1-0.1-0.3-0.2-0.5c0-0.1,0-0.1-0.1-0.1c0-0.1-0.1-0.2-0.1-0.4c0-0.1,0-0.1-0.1-0.2c0,0,0,0,0-0.1
		c0-0.1-0.1-0.2-0.1-0.2c0,0,0,0,0-0.1c-0.1-0.1-0.1-0.3-0.2-0.5c-0.1-0.2-0.1-0.4-0.2-0.5c-0.1-0.2-0.1-0.3-0.2-0.5
		C17,94.3,17,94.1,16.9,94c-0.1-0.2-0.1-0.4-0.1-0.5c0-0.1-0.1-0.2-0.1-0.3l0-0.2c0-0.1-0.1-0.3-0.1-0.4l0-0.1
		c0-0.2-0.1-0.3-0.1-0.5c0-0.1,0-0.1,0-0.2c0-0.1-0.1-0.3-0.1-0.4c-0.1-0.3-0.1-0.6-0.2-0.9c0,0,0,0,0,0c0,0,0-0.1,0-0.1v0
		c0-0.1-0.1-0.3-0.1-0.5v0c0-0.1,0-0.3-0.1-0.4c0-0.1,0-0.1,0-0.2l0-0.1c0-0.1,0-0.3-0.1-0.4c0-0.1,0-0.3,0-0.4l0-0.3v-0.1
		c0,0,0-0.1,0-0.2c0,0,0-0.1,0-0.1v0c0-0.2,0-0.3,0-0.5c0-0.2,0-0.4-0.1-0.6l0-0.4v-0.1c0-0.2,0-0.3,0-0.5c0-0.2,0-0.3,0-0.5v-0.1
		c0-0.2,0-0.3,0-0.5v0c0-0.1,0-0.3,0-0.5v-0.1c0-0.2,0-0.3,0-0.5v-1.3c0.2-10.1,3.8-19.6,10.1-27.1c1-1.1,2-2.2,3-3.2
		c2.5-2.3,5.2-4.3,8.2-6c0.1-0.1,0.2-0.1,0.3-0.2c6.5-3.6,14-5.7,21.9-5.7c4.7,0,9.2,0.7,13.5,2.1c3.3,1,6.5,2.5,9.4,4.2
		c0,0,0,0,0.1,0c0.4,0.3,0.8,0.5,1.3,0.8l0,0c0,0,0.1,0.1,0.1,0.1c0.2,0.1,0.3,0.2,0.5,0.4c0.8,0.5,1.6,1.1,2.3,1.7
		c3.6,2.8,6.7,6.2,9.2,9.9c4.5,7,7,15.1,7,23.7C102.2,83.4,102.2,83.7,102.2,84z"/>
	<g>
		<path class="st1" d="M66.3,149.8l-0.1-2.4c-1.2,0-2.4,0-3.6,0c-1.6,0-3.1,0-4.6-0.1l-0.1,2.8c1.5,0,3,0.1,4.7,0.1
			c1.1,0,2.2,0,3.4,0h0.3L66.3,149.8z M82.5,146c-2.7,0.6-5.3,0.8-7.5,1l-0.5,0l0.2,2.8l0.6,0c2.3-0.2,5-0.4,7.8-1L82.5,146z
			 M49.4,146.8c-3.9-0.4-6.5-0.8-7.7-1l-0.5,2.8c1.3,0.2,4.2,0.7,8.4,1.1l0.2-2.4l0-0.4C49.6,146.9,49.5,146.9,49.4,146.8z
			 M26.1,141.2l-1.2,2.5c2.3,1.1,5,2.1,8,2.9l0.8-2.7C30.8,143.2,28.2,142.3,26.1,141.2z M97,139.5c-1.4,1-2.9,1.9-4.2,2.6
			c-0.9,0.5-1.8,1-2.8,1.4l1.2,2.6c1-0.5,2-1,3-1.5c1.3-0.7,2.9-1.6,4.4-2.7L97,139.5z M14.6,131.1l-2.6,1.2
			c1.4,3.1,3.9,5.4,5.7,6.8l1.8-2.2C17.9,135.6,15.7,133.6,14.6,131.1z M104.5,125.9l-2.6,1c0.5,1.3,0.7,2.5,0.7,3.7
			c0,0.5,0,1.1-0.1,1.6c-0.1,0.6-0.3,1.2-0.5,1.8l2.6,1.1c0.3-0.8,0.5-1.5,0.7-2.3c0.1-0.7,0.2-1.4,0.2-2.1
			C105.4,129,105.1,127.4,104.5,125.9z M17.3,116c-1.5,1.5-3.9,4-5.3,7l2.6,1.1c1.1-2.6,3.3-4.8,4.7-6.2L17.3,116z M93,114.8
			l-0.9,1.2l-0.9,1.2c1.9,0.6,4.3,1.6,6.4,3.4l1.9-2.1C97.3,116.6,95,115.5,93,114.8z M57.4,86.7c-2.2,2-4.3,3.8-6.2,5.5l1.9,2.1
			c1.9-1.7,4-3.5,6.2-5.5L57.4,86.7z M68.4,74.7C66.7,76.9,65,79,63.2,81l2.1,1.9c1.8-2,3.6-4.2,5.4-6.5L68.4,74.7z M77.3,60.9
			c-1.4,2.4-2.8,4.8-4.2,7.1l2.4,1.5c1.5-2.3,2.9-4.7,4.3-7.2L77.3,60.9z M84.4,46.1c-0.2,0.4-0.3,0.8-0.5,1.1
			c-0.1,0.2-0.2,0.4-0.2,0.5c-0.8,2-1.7,3.9-2.6,5.8l2.5,1.2c0.8-1.7,1.6-3.5,2.4-5.3c0.1-0.2,0.2-0.4,0.3-0.6
			c0.3-0.6,0.5-1.1,0.7-1.7L84.4,46.1z"/>
	</g>
	<path class="st0" d="M98.2,17.2c0,0-1.9,0.5-2.5,1.8c-0.6,1.3-2.8,6.8-2.8,6.8l-3.5,1.1c0-0.3-0.2-0.7-0.5-0.8l-1.1-0.4
		c-0.4-0.2-0.9,0-1.1,0.5l-0.7,1.7c0,0.1,0,0.1,0,0.2L78.5,30c0,0-4.8,1.3-4.3,3.3L90,32.8l-3.5,8.7l-3.1,0.9c0,0-1.4,0.4-1.3,1
		l3.8-0.1c-0.1,0.6,0.1,1.2,0.7,1.4c0.6,0.2,1.2,0,1.5-0.5l2.6,2.8c0.5-0.3-0.2-1.6-0.2-1.6l-1.6-2.9l3.7-8.5c0,0,0,0,0,0l10.7,11.6
		c1.7-1.1-0.7-5.4-0.7-5.4l-3.5-6.5c0.1-0.1,0.2-0.2,0.2-0.3l0.7-1.7c0.2-0.4,0-0.9-0.5-1.1l-1.1-0.4c-0.2-0.1-0.4-0.1-0.6,0l0,0
		l0,0c-0.2,0.1-0.3,0.2-0.4,0.4L96,27.3L95.9,27c0,0,2.3-5.4,2.8-6.8C99.2,18.9,98.2,17.2,98.2,17.2z"/>
</g>
</svg>
