<?xml version="1.0" encoding="utf-8"?>
<!-- Generator: Adobe Illustrator 22.0.0, SVG Export Plug-In . SVG Version: 6.00 Build 0)  -->
<svg version="1.1" id="Layer_1" xmlns="http://www.w3.org/2000/svg" xmlns:xlink="http://www.w3.org/1999/xlink" x="0px" y="0px"
	 viewBox="0 0 128 128" style="enable-background:new 0 0 128 128;" xml:space="preserve">
<style type="text/css">
	.st0{fill:#FBFBF8;}
	.st1{fill:#FB004C;}
</style>
<circle class="st0" cx="64" cy="64" r="55"/>
<circle class="st1" cx="64" cy="64" r="53"/>
<g id="surface1">
	<path class="st0" d="M52.1,41.5c-11.9,0-21.4,10.1-21.4,22.5s9.5,22.5,21.4,22.5S73.5,76.4,73.5,64c0-1.5-0.2-3.1-0.4-4.5L73,59
		H52.1v7.5h14.3c-1.2,7.1-7.2,12.5-14.3,12.5c-7.9,0-14.3-6.8-14.3-15S44.2,49,52.1,49c3.6,0,6.8,1.4,9.4,3.7l5.1-5.2
		C62.7,43.8,57.7,41.5,52.1,41.5z M85.4,51.5V59h-7.1v5h7.1v7.5h4.8V64h7.1v-5h-7.1v-7.5C90.2,51.5,85.4,51.5,85.4,51.5z"/>
</g>
</svg>
