<?xml version="1.0" encoding="utf-8"?>
<!-- Generator: Adobe Illustrator 22.0.0, SVG Export Plug-In . SVG Version: 6.00 Build 0)  -->
<svg version="1.1" id="Слой_1" xmlns="http://www.w3.org/2000/svg" xmlns:xlink="http://www.w3.org/1999/xlink" x="0px" y="0px"
	 viewBox="0 0 21.5 20.5" style="enable-background:new 0 0 21.5 20.5;" xml:space="preserve">
<style type="text/css">
	.st0{fill:#273238;}
</style>
<path class="st0" d="M20.4,0H1.2C0.4,0,0.1,0.4,0.1,1.3v18c0,0.8,0.4,1.2,1.1,1.2h19.2c0.8,0,1.1-0.4,1.1-1.2V1.2
	C21.5,0.4,21.1,0,20.4,0z M20.4,15.4v1.5v2.6c0,0-4.3,0-4.4,0H1v-8.4V9.2V1h19.5v14.4H20.4z"/>
<g id="XMLID_7_">
	<path id="XMLID_9_" class="st0" d="M3.4,10.4c0,0,0-0.1,0.1-0.2C3.6,10,3.8,9.9,4.1,9.6C4.4,9.3,4.7,8.9,5,8.7
		c0.3-0.3,0.6-0.3,0.9-0.1c0.9,0.8,1.9,1.5,2.9,2.3c0.3,0.3,0.7,0.2,0.9-0.1c0.7-0.7,1.5-1.4,2.2-2.2c0.7-0.7,1.4-1.4,2.2-2.1
		c0.4-0.4,0.9-0.9,1.4-1.3c0.3-0.3,0.7-0.3,0.9,0c0.4,0.4,0.9,0.9,1.4,1.4c0.3,0.3,0.3,0.6,0,0.9C17,8.2,16.3,9,15.6,9.7
		c-0.4,0.4-0.9,0.9-1.4,1.3c-1,1-2.1,2.1-3.1,3c-0.3,0.3-0.7,0.7-1.1,1c-0.3,0.3-0.7,0.3-1.1,0.1c-1.2-1-2.5-2.1-3.9-3
		c-0.4-0.3-0.9-0.7-1.4-1c-0.1-0.1-0.2-0.3-0.3-0.3c0,0,0-0.1,0-0.2v-0.2H3.4z"/>
</g>
</svg>
