<?xml version="1.0" encoding="utf-8"?>
<!-- Generator: Adobe Illustrator 22.0.0, SVG Export Plug-In . SVG Version: 6.00 Build 0)  -->
<svg version="1.1" id="Layer_1" xmlns="http://www.w3.org/2000/svg" xmlns:xlink="http://www.w3.org/1999/xlink" x="0px" y="0px"
	 viewBox="0 0 128 128" style="enable-background:new 0 0 128 128;" xml:space="preserve">
<style type="text/css">
	.st0{fill:#FBFBF8;}
	.st1{fill:#FB004C;}
	.st2{fill:none;stroke:#FFFFFF;stroke-width:4;stroke-miterlimit:10;}
	.st3{fill:#FFFFFF;stroke:#FFFFFF;stroke-miterlimit:10;}
</style>
<circle class="st0" cx="64" cy="64" r="55"/>
<circle class="st1" cx="64" cy="64" r="53"/>
<path class="st2" d="M74.1,89H53.9C45.7,89,39,82.3,39,74.1V53.9C39,45.7,45.7,39,53.9,39h20.3C82.3,39,89,45.7,89,53.9v20.3
	C89,82.3,82.3,89,74.1,89z"/>
<circle class="st3" cx="77.9" cy="49.9" r="2.3"/>
<path class="st2" d="M64.5,76.5h-1c-6.6,0-12-5.4-12-12v-1c0-6.6,5.4-12,12-12h1c6.6,0,12,5.4,12,12v1
	C76.5,71.1,71.1,76.5,64.5,76.5z"/>
</svg>
