<?xml version="1.0" encoding="utf-8"?>
<!-- Generator: Adobe Illustrator 22.0.0, SVG Export Plug-In . SVG Version: 6.00 Build 0)  -->
<svg version="1.1"
	 id="svg8" inkscape:version="0.92.1 r15371" sodipodi:docname="logo-long.svg" xmlns:cc="http://creativecommons.org/ns#" xmlns:dc="http://purl.org/dc/elements/1.1/" xmlns:inkscape="http://www.inkscape.org/namespaces/inkscape" xmlns:rdf="http://www.w3.org/1999/02/22-rdf-syntax-ns#" xmlns:sodipodi="http://sodipodi.sourceforge.net/DTD/sodipodi-0.dtd" xmlns:svg="http://www.w3.org/2000/svg"
	 xmlns="http://www.w3.org/2000/svg" xmlns:xlink="http://www.w3.org/1999/xlink" x="0px" y="0px" viewBox="0 0 235 35"
	 style="enable-background:new 0 0 235 35;" xml:space="preserve">
<style type="text/css">
	.st0{fill:#273238;}
	.st1{fill:#E6003E;}
	.st2{fill:#273238;stroke:#273238;stroke-width:0.5669;}
</style>
<g id="Layer1002" transform="translate(127.85714,-632.85715)">
	<path id="path42"  class="st0" d="M-53.4,662.3h-3.5v-3.5h-10.5v3.5h-3.5v-12.2
		c0-3.5,1.8-5.2,5.3-5.2h7c3.5,0,5.3,1.7,5.3,5.2V662.3z M-56.9,655.3v-5.2c0-1.2-0.6-1.7-1.8-1.7h-7c-1.2,0-1.8,0.6-1.8,1.7v5.2
		H-56.9z"/>
	<path id="path44"  class="st1" d="M-32.2,644.8l-6.9,17.4h-3.7l-6.9-17.4h3.7l5,12.6l5-12.6
		L-32.2,644.8z"/>
	<path id="path46"  class="st1" d="M-11.9,648.3h-7v13.9h-3.5v-13.9h-7v-3.5h17.5V648.3z"/>
	<path id="path48"  class="st1" d="M8.2,657.3c0,3.5-1.8,5.2-5.3,5.2h-7c-3.5,0-5.3-1.7-5.3-5.2
		v-7.5c0-3.5,1.8-5.2,5.3-5.2h7c3.5,0,5.3,1.7,5.3,5.2V657.3z M4.7,657.3v-7.5c0-1.2-0.6-1.7-1.8-1.7h-7c-1.2,0-1.8,0.6-1.8,1.7v7.5
		c0,1.2,0.6,1.7,1.8,1.7h7C4.1,659.1,4.7,658.5,4.7,657.3z"/>
	<path id="path50"  class="st2" d="M29.7,662.3h-4.5l-5.6-7h-3.9v7h-3.5v-17.4h3.5v7h3.9l5.6-7h4.5
		l-7,8.7L29.7,662.3z"/>
	<path id="path52"  class="st1" d="M50,657.3c0,3.5-1.8,5.2-5.3,5.2h-7c-3.5,0-5.3-1.7-5.3-5.2
		v-7.5c0-3.5,1.8-5.2,5.3-5.2h7c3.5,0,5.3,1.7,5.3,5.2V657.3z M46.5,657.3v-7.5c0-1.2-0.6-1.7-1.8-1.7h-7c-1.2,0-1.8,0.6-1.8,1.7
		v7.5c0,1.2,0.6,1.7,1.8,1.7h7C46,659.1,46.5,658.5,46.5,657.3z"/>
	<path id="path54"  class="st1" d="M74.8,662.3h-3.5v-10.9l-7,10.9l-7-10.9v10.9h-3.5v-17.4h3.5
		l7,10.9l7-10.9h3.5V662.3z"/>
	<path id="path56"  class="st1" d="M81.9,662.3h-3.5v-17.4h3.5V662.3z"/>
	<path id="path58"  class="st1" d="M103.2,657c0,3.5-1.8,5.2-5.3,5.2H86.5v-3.5h11.4
		c1.2,0,1.8-0.6,1.8-1.7c0-1.2-0.6-1.7-1.8-1.7h-7c-3.5,0-5.3-1.7-5.3-5.2c0-3.5,1.8-5.2,5.3-5.2h11.4v3.5H90.9
		c-1.2,0-1.8,0.6-1.8,1.7c0,1.2,0.6,1.7,1.8,1.7h7C101.4,651.8,103.2,653.6,103.2,657L103.2,657z"/>
	<g id="Layer1003" transform="translate(-89.285715,676.42859)">
		<path id="path60"  class="st1" d="M3.2-21.3c0.3-1.6,2.2-2.7,0.6-3.1C-3.7-26.2-9-26.8-9.6-27.1
			c-0.9-0.5-3.5-2.5-4.8-2.5c-4.6-0.2-9.7,0.8-14.4,0.8v-7v-1.3h1.3H5.7c1.3,0,2.5,0.5,3.4,1.4l0,0c0.9,0.9,1.4,2.1,1.4,3.4v16.9
			v1.3H9.2H-24c-1.3,0-2.5-0.5-3.4-1.4l0,0l0,0c-0.9-0.9-1.4-2.1-1.4-3.4v-5h2.5v5c0,0.6,0.3,1.2,0.7,1.6l0,0c0.4,0.4,1,0.7,1.6,0.7
			H8v-15.6c0-0.6-0.3-1.2-0.7-1.6c-0.4-0.4-1-0.7-1.6-0.7h-31.9v3.2c3.9-0.1,8-0.7,11.9-0.6c2.4,0.1,4.1,1.8,5.9,2.8
			c0.6,0.4,4.2,0.8,12.7,2.8c1.8,0.4,2.2,1.3,2.2,2.2c-0.1,1.2-1.1,1.8-1.2,2.7c-0.1,0.7,0.5,1.5,0.8,1.8l-2.2,0
			C3.4-19.9,3.1-20.7,3.2-21.3L3.2-21.3z"/>
		<path id="path62"  class="st0" d="M-21.3-24.6c-4.5-0.5-9.7-1.9-13.3-3.8c5,0.8,9.9,1.5,15.2,2.1
			c6.1,0.7,11.5,0.4,18,2.2C-8.2-24.7-13.9-23.8-21.3-24.6z"/>
		<path id="path64"  class="st1" d="M1.1-19.3c-1.3-0.9-2-1.4-3.2-1.9c-1.4-0.6-3.2-0.7-5.4-0.9
			c1.5-0.7,4.3-1,6.2-0.3C-0.1-22,1-21.1,1.1-19.3z"/>
	</g>
</g>
</svg>
