<svg width="46" height="44" viewBox="0 0 46 44" fill="none" xmlns="http://www.w3.org/2000/svg">
<path d="M40.3 0.261224C40.3 0.261224 37.7 -0.538776 36 0.661224C34.3 1.76122 27.9 6.76123 27.9 6.76123L22.9 5.56123C23.1 5.16123 23.1 4.66123 22.8 4.26123L21.8 2.96122C21.4 2.46122 20.7 2.36122 20.1 2.76122L18.1 4.26123C18 4.36123 18 4.36122 17.9 4.46122L7.5 1.96122C7.5 1.96122 0.800002 0.161223 1.52588e-06 2.96122L19.6 13.2612L9.4 21.2612L5 20.2612C5 20.2612 3 19.7612 2.8 20.5612L7.5 23.0612C6.9 23.6612 6.8 24.5612 7.4 25.2612C7.9 25.9612 8.8 26.0612 9.6 25.6612L10.8 30.8612C11.6 30.9612 11.6 28.8612 11.6 28.8612L11.8 24.2612L22.2 16.6612C22.2 16.6612 22.2 16.6612 22.2 16.7612L27.1 38.1612C29.9 38.0612 30 31.1612 30 31.1612L30.3 20.9612C30.5 20.9612 30.6 20.8612 30.8 20.7612L32.8 19.2612C33.3 18.8612 33.4 18.1612 33 17.5612L32 16.2612C31.8 16.0612 31.6 15.8612 31.3 15.8612C31 15.8612 30.8 15.8612 30.5 16.0612L30.7 10.8612V10.4612C30.7 10.4612 37.3 5.66122 38.8 4.36122C40.4 3.06122 40.3 0.261224 40.3 0.261224Z" transform="translate(47.6729 11.1042) rotate(127.26)" fill="#222222"/>
</svg>
