<?xml version="1.0" encoding="utf-8"?>
<!-- Generator: Adobe Illustrator 22.0.0, SVG Export Plug-In . SVG Version: 6.00 Build 0)  -->
<svg version="1.1" id="Layer_1" xmlns="http://www.w3.org/2000/svg" xmlns:xlink="http://www.w3.org/1999/xlink" x="0px" y="0px"
	 viewBox="0 0 300 300" style="enable-background:new 0 0 300 300;" xml:space="preserve">
<style type="text/css">
	.tt0{fill:#222222;}
	.tt1{fill:#14C8A3;}
	.tt2{fill:#FFCD00;}
</style>
<g id="Layer_4">
	<g id="Layer_1_1_">
		<g>
			<g>
				<path class="tt0" d="M62.4,210.3c0-0.7,0.1-1.3,0.4-1.9c0.3-0.6,0.6-1.1,1-1.5s0.9-0.7,1.5-1s1.2-0.4,1.8-0.4
					c0.6,0,1.3,0.1,1.8,0.3c0.6,0.2,1.1,0.6,1.6,1s0.8,0.9,1.1,1.5c0.3,0.6,0.4,1.2,0.4,1.9v6.8h14.8c0.6,0,1.3,0.1,1.8,0.4
					s1.1,0.6,1.5,1s0.7,0.9,1,1.5s0.4,1.2,0.4,1.8s-0.1,1.2-0.4,1.8c-0.3,0.5-0.6,1-1,1.4s-0.9,0.7-1.5,1c-0.6,0.2-1.2,0.3-1.8,0.3
					H71.9v12.3c0,1.6,0.3,3,0.8,4.3c0.6,1.3,1.3,2.5,2.3,3.5s2.1,1.8,3.5,2.3c1.3,0.6,2.8,0.8,4.4,0.8c1.4,0,2.6-0.2,3.8-0.6
					c1.2-0.4,2.3-1,3.3-1.9c0.6-0.5,1.1-0.9,1.6-1.1c0.5-0.3,1.2-0.4,1.9-0.4c0.5,0,1.1,0.1,1.6,0.3s0.9,0.5,1.3,0.9
					s0.7,0.9,0.9,1.4s0.3,1.1,0.3,1.8s-0.1,1.4-0.4,2.1c-0.3,0.7-0.7,1.3-1.3,1.8c-1.8,1.7-3.8,3-6,3.8c-2.2,0.8-4.6,1.3-7.2,1.3
					c-2.9,0-5.5-0.5-8-1.6s-4.7-2.5-6.5-4.3s-3.3-4-4.4-6.5s-1.6-5.1-1.6-8L62.4,210.3L62.4,210.3z"/>
			</g>
			<g>
				<path class="tt0" d="M103.3,222.4c0-0.6,0.1-1.2,0.3-1.8c0.2-0.6,0.6-1.1,1-1.5s0.9-0.7,1.5-1c0.6-0.2,1.2-0.3,1.8-0.3
					c0.6,0,1.3,0.1,1.8,0.3c0.6,0.2,1.1,0.6,1.5,1s0.7,0.9,1,1.5s0.4,1.2,0.4,1.8V239c0,1.5,0.3,2.9,0.8,4.1
					c0.5,1.3,1.3,2.4,2.2,3.3c0.9,0.9,2,1.7,3.3,2.2s2.6,0.8,4.1,0.8s2.8-0.3,4-0.8s2.2-1.3,3-2.2s1.5-2,1.9-3.3
					c0.5-1.3,0.7-2.7,0.7-4.1v-16.6c0-0.6,0.1-1.2,0.4-1.8c0.3-0.6,0.6-1.1,1.1-1.5s0.9-0.7,1.5-1c0.6-0.2,1.2-0.3,1.8-0.3
					s1.2,0.1,1.8,0.3s1,0.6,1.5,1c0.4,0.4,0.7,0.9,1,1.5c0.2,0.6,0.3,1.2,0.3,1.8V239c0,2.8-0.5,5.3-1.4,7.7s-2.3,4.5-4,6.3
					s-3.7,3.2-6,4.3c-2.3,1-4.8,1.6-7.5,1.6c-2.8,0-5.3-0.5-7.7-1.6c-2.4-1-4.5-2.5-6.3-4.3s-3.2-3.9-4.2-6.3c-1-2.4-1.5-5-1.5-7.7
					L103.3,222.4L103.3,222.4z"/>
			</g>
			<g>
				<path class="tt0" d="M147.7,210.3c0-0.7,0.1-1.3,0.4-1.9c0.3-0.6,0.6-1.1,1-1.5s0.9-0.7,1.5-1s1.2-0.4,1.8-0.4s1.3,0.1,1.8,0.3
					c0.6,0.2,1.1,0.6,1.6,1s0.8,0.9,1.1,1.5s0.4,1.2,0.4,1.9v6.8h14.8c0.6,0,1.3,0.1,1.8,0.4s1.1,0.6,1.5,1s0.7,0.9,1,1.5
					s0.4,1.2,0.4,1.8s-0.1,1.2-0.4,1.8c-0.3,0.5-0.6,1-1,1.4s-0.9,0.7-1.5,1c-0.6,0.2-1.2,0.3-1.8,0.3h-14.8v12.3
					c0,1.6,0.3,3,0.8,4.3c0.6,1.3,1.3,2.5,2.3,3.5s2.1,1.8,3.5,2.3c1.3,0.6,2.8,0.8,4.4,0.8c1.4,0,2.6-0.2,3.8-0.6
					c1.2-0.4,2.3-1,3.3-1.9c0.6-0.5,1.1-0.9,1.6-1.1c0.5-0.3,1.2-0.4,1.9-0.4c0.5,0,1.1,0.1,1.6,0.3s0.9,0.5,1.3,0.9
					s0.7,0.9,0.9,1.4s0.3,1.1,0.3,1.8s-0.1,1.4-0.4,2.1c-0.3,0.7-0.7,1.3-1.3,1.8c-1.8,1.7-3.8,3-6,3.8c-2.2,0.8-4.6,1.3-7.2,1.3
					c-2.9,0-5.5-0.5-8-1.6s-4.7-2.5-6.5-4.3s-3.3-4-4.4-6.5c-1.1-2.5-1.6-5.1-1.6-8L147.7,210.3L147.7,210.3z"/>
			</g>
			<g>
				<path class="tt0" d="M188.7,210.3c0-0.7,0.1-1.3,0.4-1.9c0.3-0.6,0.6-1.1,1-1.5s0.9-0.7,1.5-1s1.2-0.4,1.8-0.4s1.3,0.1,1.8,0.3
					c0.6,0.2,1.1,0.6,1.6,1s0.8,0.9,1.1,1.5s0.4,1.2,0.4,1.9v6.8H213c0.6,0,1.3,0.1,1.8,0.4s1.1,0.6,1.5,1s0.7,0.9,1,1.5
					s0.4,1.2,0.4,1.8s-0.1,1.2-0.4,1.8c-0.3,0.5-0.6,1-1,1.4s-0.9,0.7-1.5,1c-0.6,0.2-1.2,0.3-1.8,0.3h-14.8v12.3
					c0,1.6,0.3,3,0.8,4.3c0.6,1.3,1.3,2.5,2.3,3.5s2.1,1.8,3.5,2.3c1.3,0.6,2.8,0.8,4.4,0.8c1.4,0,2.6-0.2,3.8-0.6
					c1.2-0.4,2.3-1,3.3-1.9c0.6-0.5,1.1-0.9,1.6-1.1c0.5-0.3,1.2-0.4,1.9-0.4c0.5,0,1.1,0.1,1.6,0.3s0.9,0.5,1.3,0.9
					s0.7,0.9,0.9,1.4s0.3,1.1,0.3,1.8s-0.1,1.4-0.4,2.1c-0.3,0.7-0.7,1.3-1.3,1.8c-1.8,1.7-3.8,3-6,3.8c-2.2,0.8-4.6,1.3-7.2,1.3
					c-2.9,0-5.5-0.5-8-1.6s-4.7-2.5-6.5-4.3s-3.3-4-4.4-6.5c-1.1-2.5-1.6-5.1-1.6-8L188.7,210.3L188.7,210.3z"/>
			</g>
			<g>
				<g>
					<path class="tt0" d="M237.3,219.2c-0.4-0.4-0.9-0.7-1.4-1s-1.1-0.4-1.8-0.4c-0.6,0-1.3,0.1-1.8,0.4s-1.1,0.6-1.5,1
						s-0.8,0.9-1,1.5c-0.3,0.6-0.4,1.2-0.4,1.8v31.7c0,0.6,0.1,1.2,0.4,1.8c0.3,0.6,0.6,1.1,1,1.5s0.9,0.7,1.5,1s1.2,0.3,1.8,0.3
						s1.2-0.1,1.8-0.3c0.5-0.2,1-0.6,1.5-1c0.4-0.4,0.7-0.9,1-1.5c0.2-0.6,0.3-1.2,0.3-1.8v-31.7c0-0.6-0.1-1.2-0.3-1.8
						C238,220.1,237.7,219.6,237.3,219.2z"/>
				</g>
				<g>
					<path class="tt1" d="M238.7,206.5c-0.3-0.6-0.7-1.1-1.1-1.6c-0.5-0.5-1-0.8-1.6-1.1s-1.3-0.4-2-0.4s-1.4,0.1-2,0.4
						c-0.6,0.3-1.1,0.6-1.6,1.1s-0.8,1-1.1,1.6s-0.4,1.3-0.4,2s0.1,1.4,0.4,2s0.6,1.1,1.1,1.6s1,0.8,1.6,1.1s1.3,0.4,2,0.4
						s1.3-0.1,2-0.4c0.6-0.3,1.1-0.6,1.6-1.1s0.8-1,1.1-1.6s0.4-1.3,0.4-2C239.1,207.8,239,207.2,238.7,206.5z"/>
				</g>
			</g>
		</g>
		<g>
			<g>
				<path class="tt0" d="M104,268.8c0-0.4,0.1-0.7,0.4-1s0.6-0.4,1-0.4s0.7,0.1,1,0.4s0.4,0.6,0.4,1v4.8h9.3c0.4,0,0.7,0.1,1,0.4
					s0.4,0.6,0.4,1s-0.1,0.7-0.4,0.9c-0.3,0.3-0.6,0.4-1,0.4h-9.3v7.5c0,1,0.2,2,0.6,2.9s0.9,1.6,1.6,2.3s1.5,1.2,2.4,1.5
					c0.9,0.4,1.9,0.5,2.9,0.5c0.9,0,1.8-0.1,2.6-0.4s1.6-0.7,2.3-1.4c0.1-0.1,0.3-0.2,0.5-0.3c0.2-0.1,0.4-0.1,0.6-0.1
					c0.3,0,0.6,0.1,0.9,0.4s0.4,0.6,0.4,0.9c0,0.2-0.1,0.4-0.1,0.6s-0.2,0.4-0.4,0.5c-0.9,0.8-1.9,1.5-3,1.9s-2.4,0.6-3.6,0.6
					c-1.4,0-2.8-0.3-4-0.8c-1.3-0.5-2.4-1.2-3.3-2.1s-1.7-2-2.2-3.2s-0.8-2.6-0.8-4L104,268.8L104,268.8z"/>
			</g>
			<g>
				<path class="tt0" d="M122.7,283.7c0-1.4,0.3-2.8,0.8-4c0.5-1.3,1.3-2.4,2.2-3.3c0.9-0.9,2-1.7,3.3-2.2c1.2-0.5,2.6-0.8,4-0.8
					s2.8,0.3,4,0.8s2.3,1.3,3.3,2.2s1.7,2,2.2,3.3c0.5,1.2,0.8,2.6,0.8,4s-0.3,2.8-0.8,4s-1.3,2.3-2.2,3.2s-2,1.7-3.3,2.2
					c-1.2,0.5-2.6,0.8-4,0.8s-2.8-0.3-4-0.8s-2.3-1.3-3.3-2.2s-1.7-2-2.2-3.2S122.7,285.1,122.7,283.7z M125.5,283.7
					c0,1,0.2,2,0.6,2.9s0.9,1.7,1.6,2.4c0.7,0.7,1.5,1.2,2.4,1.6s1.9,0.6,2.9,0.6c1.1,0,2-0.2,3-0.6c0.9-0.4,1.7-0.9,2.4-1.6
					s1.2-1.5,1.6-2.4c0.4-0.9,0.6-1.9,0.6-2.9s-0.2-2-0.6-2.9c-0.4-0.9-0.9-1.7-1.6-2.4c-0.7-0.7-1.5-1.2-2.4-1.6s-1.9-0.6-3-0.6
					c-1,0-2,0.2-2.9,0.6s-1.7,0.9-2.4,1.6c-0.7,0.7-1.2,1.5-1.6,2.4C125.7,281.7,125.5,282.7,125.5,283.7z"/>
			</g>
			<g>
				<path class="tt0" d="M146.1,274.8c0-0.4,0.1-0.7,0.4-1c0.3-0.3,0.6-0.4,1-0.4s0.7,0.1,1,0.4s0.4,0.6,0.4,1v9.3
					c0,1,0.2,1.9,0.5,2.7c0.3,0.9,0.8,1.6,1.4,2.2c0.6,0.6,1.3,1.1,2.2,1.5s1.7,0.5,2.7,0.5s1.8-0.2,2.6-0.5c0.8-0.4,1.5-0.9,2-1.5
					c0.6-0.6,1-1.4,1.3-2.2c0.3-0.9,0.5-1.8,0.5-2.7v-9.3c0-0.4,0.1-0.7,0.4-1s0.6-0.4,1-0.4s0.7,0.1,1,0.4s0.4,0.6,0.4,1v9.3
					c0,1.3-0.2,2.6-0.7,3.8c-0.5,1.2-1.1,2.2-2,3.1c-0.8,0.9-1.8,1.6-3,2.1c-1.1,0.5-2.4,0.8-3.7,0.8c-1.4,0-2.6-0.3-3.8-0.8
					s-2.2-1.2-3-2.1c-0.9-0.9-1.6-1.9-2-3.1c-0.5-1.2-0.7-2.5-0.7-3.8v-9.3H146.1z"/>
			</g>
			<g>
				<path class="tt0" d="M168.8,284.1c0-1.5,0.3-2.8,0.8-4.2c0.6-1.3,1.3-2.4,2.3-3.4s2.1-1.8,3.4-2.3s2.7-0.9,4.1-0.9h0.2
					c0.5,0,0.8,0.1,1.1,0.4s0.4,0.6,0.4,1s-0.1,0.7-0.4,1c-0.3,0.3-0.6,0.4-1,0.4h-0.2c-1.1,0-2.1,0.2-3,0.6s-1.8,1-2.5,1.7
					s-1.3,1.6-1.7,2.5c-0.4,1-0.6,2-0.6,3.1v8.2c0,0.4-0.1,0.7-0.4,1c-0.3,0.3-0.6,0.4-0.9,0.4c-0.4,0-0.7-0.1-1-0.4s-0.4-0.6-0.4-1
					L168.8,284.1L168.8,284.1z"/>
			</g>
			<g>
				<path class="tt0" d="M191.7,290.9c0.4,0,0.8-0.1,1.2-0.2s0.7-0.4,1-0.6c0.3-0.3,0.5-0.6,0.7-1s0.3-0.8,0.3-1.3s-0.1-0.9-0.3-1.3
					s-0.4-0.7-0.7-0.9c-0.3-0.3-0.7-0.4-1-0.6c-0.4-0.1-0.8-0.2-1.2-0.2h-4.1c-0.8,0-1.6-0.1-2.2-0.5c-0.7-0.3-1.3-0.7-1.8-1.3
					c-0.5-0.5-0.9-1.1-1.2-1.8c-0.3-0.7-0.4-1.4-0.4-2.2s0.1-1.5,0.4-2.2s0.7-1.3,1.2-1.8s1.1-0.9,1.8-1.2c0.7-0.3,1.4-0.4,2.2-0.4
					h7.7c0.4,0,0.7,0.1,1,0.3c0.3,0.2,0.4,0.6,0.4,1c0,0.5-0.1,0.8-0.4,1.1c-0.3,0.3-0.6,0.4-1,0.4h-7.7c-0.4,0-0.8,0.1-1.1,0.2
					c-0.3,0.2-0.6,0.4-0.9,0.6c-0.3,0.3-0.5,0.6-0.6,0.9s-0.2,0.7-0.2,1.1s0.1,0.8,0.2,1.1c0.1,0.3,0.3,0.7,0.6,0.9
					c0.3,0.3,0.6,0.5,0.9,0.6s0.7,0.2,1.1,0.2h4.4c0.8,0,1.6,0.1,2.3,0.5c0.7,0.3,1.3,0.7,1.8,1.3c0.5,0.5,0.9,1.1,1.2,1.9
					s0.4,1.5,0.4,2.3s-0.1,1.6-0.4,2.3s-0.7,1.3-1.2,1.9c-0.5,0.5-1.1,1-1.8,1.3s-1.5,0.5-2.3,0.5h-9.2c-0.4,0-0.7-0.1-0.9-0.4
					c-0.3-0.3-0.4-0.6-0.4-1s0.1-0.7,0.4-1c0.3-0.2,0.5-0.4,0.9-0.4L191.7,290.9L191.7,290.9z"/>
			</g>
		</g>
	</g>
	<g>
		<g>
			<g>
				<path class="tt1" d="M245.5,211.6c-2,0-4.1-0.1-6.2-0.3l0.5-5c2,0.2,3.9,0.3,5.8,0.3V211.6z"/>
			</g>
			<g>
				<path class="tt1" d="M257.7,210.4l-1.2-4.9c4-1,7.2-2.5,9.5-4.4l3.3,3.8C266.4,207.4,262.5,209.3,257.7,210.4z M269.9,192.7
					L269.9,192.7c0-2-0.5-3.7-0.6-4.3c-0.5-2-1.3-3.8-2.3-5.6l4.3-2.6c1.3,2.2,2.3,4.5,2.8,6.9c0.5,1.9,0.8,3.7,0.8,5.5L269.9,192.7
					z M259.8,174.9c-2.6-2.1-5.8-4.2-9.4-6.1l2.3-4.4c3.9,2.1,7.4,4.3,10.3,6.6L259.8,174.9z M239.9,164.1
					c-3.3-1.3-6.8-2.5-10.9-3.8l1.5-4.8c4.2,1.3,7.9,2.6,11.3,3.9L239.9,164.1z M217.8,157c-3.7-1-7.3-1.8-11.2-2.6l1-4.9
					c4.1,0.8,7.8,1.7,11.6,2.7L217.8,157z M195.1,152.4c-3.5-0.5-7.3-1.1-11.6-1.7l0.7-4.9c4.3,0.6,8.2,1.2,11.6,1.7L195.1,152.4z
					 M171.9,149.3c-3.2-0.3-7.1-0.7-11.7-1.2l0.5-5c4.6,0.5,8.4,0.8,11.7,1.2L171.9,149.3z M148.6,146.9l-11.7-1.1l0.5-5l11.7,1.1
					L148.6,146.9z M125.2,144.7l-11.7-1.1l0.5-5l11.7,1.1L125.2,144.7z M101.9,142.6c-5.1-0.4-6.8-0.6-8-0.6
					c-0.8-0.1-1.3-0.1-2.4-0.2l-1.3-0.1l0.6-5l1.3,0.1c1,0.1,1.4,0.1,2.2,0.2c1.2,0.1,3,0.2,8.1,0.6L101.9,142.6z M78.4,140.2
					c-4.6-0.6-8.3-1.2-11.8-2l1-4.9c3.3,0.7,6.9,1.3,11.4,1.9L78.4,140.2z M55,135c-4.1-1.5-7.7-3.3-11-5.5l2.8-4.2
					c3,2,6.2,3.6,9.9,5L55,135z M34.8,121.3c-2.8-3.2-5.1-6.7-6.9-10.3l4.5-2.2c1.5,3.2,3.6,6.3,6.1,9.2L34.8,121.3z M24.3,99.1
					c-0.2-1.7-0.4-3.5-0.4-5.3c0-2.4,0.2-4.8,0.6-7.1l4.9,0.8c-0.4,2.1-0.5,4.2-0.5,6.3c0,1.6,0.1,3.1,0.3,4.6L24.3,99.1z
					 M32.8,76.9l-4.6-2c1.6-3.6,3.7-7.2,6.2-10.6l4,3C36.2,70.3,34.3,73.6,32.8,76.9z"/>
			</g>
			<g>
				<path class="tt1" d="M46.1,58.7l-3.5-3.5c1.5-1.5,3.1-2.8,4.7-4.1l3.1,3.9C48.9,56.1,47.4,57.4,46.1,58.7z"/>
			</g>
		</g>
	</g>
	<g>
		<path class="tt2" d="M220.5,54.2c-2.5-7.5-6.2-14.4-10.9-20.7c-6.1-8-13.7-14.6-22.4-19.3c-10.5-6-22.4-9.2-34.6-9.2
			c-10.6,0-20.9,2.3-30.4,6.9l-0.3,0.1c-0.5,0.2-0.9,0.5-1.3,0.7c-0.1,0-0.2,0.1-0.2,0.1c-8.1,4.2-15.3,10-21.2,16.9
			c0,0,0,0-0.1,0.1c-1,1.2-2,2.4-3,3.6c-4.8,6.3-8.5,13.3-10.9,20.7c-2.4,7.3-3.6,14.9-3.6,22.6V77c0,0.2,0,0.3,0,0.5
			c0.1,7.4,1.3,14.8,3.6,21.8c1.6,4.9,3.8,9.7,6.5,14.1c1.4,2.3,2.9,4.5,4.5,6.6l2.7,3.6l1.6,2.1l41.3,53.9l11,14.4l0.1,0.1l0.1-0.1
			l0.1,0.1l11-14.5l20.5-26.9l20.7-27l1.5-1.9l2.6-3.4l0.3-0.4c4.8-6.3,8.5-13.3,10.9-20.7c2.3-7.1,3.6-14.4,3.6-21.8
			c0-0.1,0-0.3,0-0.4v-0.3C224.2,69,222.9,61.5,220.5,54.2z M91.2,103c-0.1-0.1-0.1-0.2-0.2-0.3c0-0.1-0.1-0.1-0.1-0.2
			c-0.1-0.1-0.1-0.2-0.1-0.3c0-0.1-0.1-0.2-0.1-0.3c-0.1-0.1-0.1-0.3-0.2-0.4s-0.1-0.3-0.2-0.5s-0.2-0.4-0.3-0.6v-0.1c0,0,0,0,0-0.1
			l-0.3-0.6c0-0.1-0.1-0.2-0.1-0.3c-0.1-0.1-0.1-0.3-0.2-0.5c-0.1-0.1-0.1-0.3-0.2-0.4C89.1,98.3,89,98.1,89,98l-0.1-0.1
			c-0.1-0.2-0.2-0.5-0.3-0.7l0,0v-0.1c-0.1-0.2-0.2-0.4-0.3-0.7c-0.1-0.2-0.2-0.5-0.3-0.7c0-0.1-0.1-0.2-0.1-0.2
			c-0.1-0.2-0.1-0.4-0.2-0.5c0-0.1-0.1-0.2-0.1-0.3v-0.1c0-0.1-0.1-0.2-0.1-0.3v-0.1c-0.1-0.2-0.2-0.5-0.2-0.7
			c-0.1-0.3-0.2-0.5-0.3-0.8c-0.1-0.3-0.1-0.5-0.2-0.8s-0.1-0.5-0.2-0.8s-0.1-0.5-0.2-0.8c-0.1-0.2-0.1-0.4-0.1-0.5l-0.1-0.3
			c-0.1-0.2-0.1-0.4-0.1-0.6v-0.1C86,88.5,86,88.3,85.9,88c0-0.1,0-0.1-0.1-0.2c-0.1-0.2-0.1-0.4-0.1-0.6c-0.1-0.5-0.2-0.9-0.3-1.4
			c0,0,0,0,0-0.1s0-0.1,0-0.2l0,0c-0.1-0.2-0.1-0.5-0.1-0.7l0,0c0-0.2-0.1-0.4-0.1-0.6c0-0.1,0-0.2-0.1-0.3v-0.1
			c0-0.2-0.1-0.4-0.1-0.6s-0.1-0.4-0.1-0.6L84.7,82l0,0c0-0.1,0-0.2,0-0.3c0-0.1,0-0.1,0-0.2l0,0c0-0.3-0.1-0.5-0.1-0.8
			s-0.1-0.7-0.1-1L84.4,79v-0.2c0-0.3,0-0.5-0.1-0.7c0-0.3,0-0.5-0.1-0.8v-0.1c0-0.3,0-0.5,0-0.8l0,0c0-0.2,0-0.5,0-0.7v-0.2
			c0-0.3,0-0.5,0-0.8v-2c0.3-16,6-31,15.9-42.8c1.5-1.7,3.1-3.4,4.8-5c3.9-3.6,8.3-6.8,12.9-9.4c0.1-0.1,0.3-0.2,0.4-0.2
			c10.2-5.7,22-9,34.6-9c7.4,0,14.6,1.1,21.3,3.3c5.2,1.6,10.2,3.9,14.8,6.6c0,0,0.1,0,0.1,0.1c0.7,0.4,1.3,0.8,2,1.3l0,0
			c0.1,0,0.1,0.1,0.2,0.1c7.6,5.1,14,11.6,18.9,18.9c7.1,11,11.1,23.9,11.1,37.3c0,0.5,0,1,0,1.5s0,1.1-0.1,1.6
			c-0.1,0.9-0.1,1.9-0.2,2.8c0,0.1,0,0.2,0,0.3c-1.2,12.4-6.1,24.3-14.7,35.6c-0.5-1.1-0.9-2.3-1.4-3.4c-0.4-0.9-0.8-1.8-0.7-2.8
			c0.2-0.3,0.4-0.5,0.6-0.8c-0.3-0.3-0.5-0.6-0.8-0.9c0,1.2,0,2.4-0.4,3.5c-0.5,1.3-1,2.5-1.5,3.8c-0.5,1.2-0.9,2.5-1.7,3.6
			c-0.6,0.9-1.4,1.7-2.2,2.4c-0.3-0.4-0.8-0.9-0.6-1.5c0.3-1.3,0.9-2.5,1.2-3.8c-0.3,0.7-0.7,1.3-1.2,1.9c-0.3-0.6-0.5-1.2-0.7-1.8
			c-0.1,0-0.3,0-0.3,0c-0.2,0.5-0.3,0.9-0.5,1.3c-0.5-1.3-0.3-2.8-0.2-4.2c0.1-0.8,0.1-1.7,0.5-2.5c0.6-0.4,1.3-0.6,1.9-0.9
			c-0.5-0.1-1.1-0.2-1.6-0.2c-0.3-1-0.6-1.9-0.8-2.9c-0.1-0.9-0.3-1.8-0.6-2.7c-0.2,0.9-0.3,1.9-0.9,2.7c-0.6-1.2-0.8-2.6-0.8-4
			c-0.1-1.4-0.1-2.9,0.1-4.3c0-0.4,0.1-0.9,0.1-1.3c0-0.1-0.1-0.1-0.1-0.2c-0.2-0.7-0.2-2.4-0.3-3c-0.1,0.6-0.4,1.8-0.5,2.4
			c-0.3-0.1-0.6-0.1-0.8-0.2c0.1-0.5,0.4-0.9,0.4-1.4c-0.3-1.2-1.3-2.1-1.9-3.2c-0.5-1-0.1-2.1-0.2-3.1c-0.1-1.1-0.2-2.2-0.3-3.3
			c-0.5,0.6-0.3,1.4-0.4,2.2c0,0.7-0.2,1.3-0.2,2c0.1,0.8,0.2,1.8-0.3,2.5c-0.7,0.9-1.3,1.9-1.8,2.9c0.1,0.5,0.2,1,0.4,1.5
			c-0.2,0-0.5,0.1-0.7,0.1c0-0.8-0.1-1.6-0.2-2.4c-0.3,1-0.4,2-0.6,2.9c-0.3,1,0.2,1.9,0.2,2.9c0,1.9,0,3.9-0.4,5.7
			c-0.1,0.5-0.5,0.9-0.9,1.3c-0.2-0.9-0.4-1.8-0.6-2.7c-0.3,0.9-0.5,1.8-0.6,2.7c-0.1,1-0.5,1.9-0.8,2.9c-0.5,0.1-1.1,0.2-1.6,0.2
			c0.6,0.3,1.3,0.6,1.9,0.9c0.2,0.3,0.2,0.6,0.2,0.9c0.2,1.9,0.5,3.9,0.2,5.8c-0.3-0.4-0.5-0.8-0.6-1.3c-0.1,0-0.2,0-0.3,0
			c-0.1,0.5-0.1,0.9-0.4,1.4c-0.2,0.1-0.4,0.2-0.6,0.3c-0.3-0.6-0.6-1.3-0.9-1.9c0.3,1.1,0.7,2.3,1.2,3.4c0-0.4-0.1-0.7-0.1-1.1
			c0.1,0.1,0.3,0.2,0.5,0.3c0.1,0.4,0.1,0.8,0.2,1.3c-0.2,0-0.3-0.1-0.5-0.1c-0.5,1.5-0.5,3.1-0.8,4.7c-0.4,0.1-0.8,0.2-1.3,0.3
			c0.6,0.7,1.3,1.3,1.6,2.3c0.5,1.6,0.4,3.2,0.4,4.8c0,2.2,0,4.3,0,6.5c0,0.5-0.1,0.9-0.3,1.3l0,0c-0.1,0.1-0.2,0.2-0.3,0.2
			c-0.1-0.3-0.2-0.6-0.4-0.9c-0.4-0.4-1-0.7-1.5-1c-0.1-1.1,0.1-2.3-0.7-3.2c-0.4-0.7-1.3-0.6-1.9-1c-0.6-0.4-1.1-1-1.7-1.4
			c-1.3-0.2-2.5,0-3.8-0.1c-0.1-0.4-0.2-0.8-0.3-1.3c-0.1,0.5-0.2,1-0.4,1.5c-0.9,0.1-1.8,0.1-2.7,0c-0.2-1.3-0.3-2.5-0.5-3.8
			s-0.8-2.5-1.8-3.4c-0.6-0.6-1.4-0.9-2-1.5c-0.3-0.8,0.7-1.8,0.1-2.6c-0.5-0.8-0.7-1.7-0.9-2.6c-0.1,0.5-0.2,1-0.3,1.4
			c-0.2,0.6-0.6,1.1-0.8,1.6c0,0.7,0.5,1.4,0.3,2.1c-0.4,0.4-1,0.6-1.4,0.9c-1.1,0.7-2,1.9-2.3,3.2c-0.2,0.7-0.4,1.3-0.6,2
			c-0.1-0.4-0.3-0.8-0.4-1.2c-0.6,0.4-1.2,0.9-1.5,1.6c-0.2,0.5-0.2,1-0.3,1.5c-0.9,0-1.8,0-2.7,0c-0.1-0.6-0.2-1.2-0.4-1.8
			c-0.1,0.6-0.2,1.1-0.2,1.7c-1.1,0-2.1,0.1-3.2,0.2c-0.1-0.9-0.7-1.6-1-2.5c-0.2-0.8-0.1-1.7-0.3-2.5c-0.3-1.1-0.4-2.3-0.5-3.4
			c-0.2,1.8-0.7,3.6-0.8,5.4c-0.1,1.1-1.1,1.9-1.1,3.1c-0.8,0.1-1.6,0-2.2-0.4c-0.3-0.2-0.4,0.1-0.6,0.2c0-0.5,0-1-0.1-1.5
			c-0.3,0.4-0.5,0.9-0.6,1.4c-0.9-0.2-1.3-1.1-1.7-1.8c-0.3-0.6-0.3-1.4-0.3-2.1c0-0.7-0.3-1.3-0.4-1.9c-0.2-0.8-0.2-1.5-0.2-2.3
			c-0.1,0-0.2,0-0.3,0c0,1,0,2-0.3,3c-0.2,0.7-0.3,1.5-0.3,2.2c0,0.6-0.3,1.1-0.6,1.6c-0.5-1.5-0.2-3-0.7-4.5
			c-0.2-0.8-0.2-1.7-0.3-2.5c-0.1-1.2-0.7-2.2-0.7-3.4c0-1.5,0-3.1,0-4.6c0-1.1,0.2-2.2,0.1-3.2c-0.5-3.1,0.1-6.3-0.3-9.4
			c-0.1-1.3,0.1-2.7-0.2-4.1c-0.1-0.7-0.3-1.4-0.3-2.1c0-1.4-0.2-2.8-0.2-4.2c0-2.4,0-4.8,0-7.2c0-1.1,0.4-2,0.9-2.9
			c-0.9-0.5-1.7-0.9-2.6-1.5c0.8-0.5,1.9-0.9,2.5-1.7c0.1-1.2,0-2.4-0.1-3.6c0-0.8,0.2-1.5,0-2.3c-0.4-1.3-0.3-2.7-0.2-4.1
			c-0.1,0-0.3,0-0.4,0c0,1.3,0.1,2.6-0.1,3.9c-0.6-1.5-0.8-3.1-1.1-4.7c-0.5-1.9-0.3-4-0.3-5.9c-0.1,0-0.3,0-0.3,0
			c0.1,2.3,0.2,4.6-0.4,6.9c-0.3-1.1-0.6-2.2-0.7-3.3c-0.1-1.7,0.1-3.3-0.1-5c-0.5,1.8,0.1,3.8-0.4,5.6c-0.2-1.2-0.2-2.4-0.1-3.6
			c-0.1,0-0.3,0-0.3,0c0.2,2.6-0.1,5.2-0.4,7.7c-0.1,0-0.4,0-0.6,0.1c-0.2-1.6-0.3-3.2-0.5-4.7c-0.4-2.6-0.5-5.3-0.9-7.9
			c-0.1-0.7-0.3-1.4-0.1-2.1c0.4-0.7,1-1.3,1.3-2.1c-0.2-0.3-0.4-0.6-0.8-0.7c-0.3,0-0.7,0.1-1,0.1c-0.3-2-0.3-3.9-0.6-5.9
			c-0.1-1.4-0.1-2.7-0.1-4.1c0-1.4-0.2-2.9,0.1-4.3c0.1-0.5,0.1-1.1,0-1.6c-0.4-1.2-0.3-2.5-0.3-3.8h-0.5c0,1.2,0.1,2.5-0.3,3.7
			c-0.2,0.6-0.2,1.2-0.1,1.9c0.3,1.6,0,3.2,0,4.8c0,3.1-0.3,6.2-0.6,9.3c-0.6-0.1-1.5-0.3-1.9,0.4c0.2,0.8,0.7,1.4,1.1,2
			c0.5,0.7,0.2,1.5,0.1,2.3c-0.6,4.3-0.9,8.6-1.6,12.9c-0.2-0.2-0.3-0.5-0.4-0.7c-0.6-2.4-0.4-4.9-0.6-7.4c-0.2,1.3-0.1,2.6-0.2,3.9
			c-0.2-0.5-0.4-1.1-0.4-1.7c0-1.3,0.1-2.7-0.1-4c-0.4,1.8-0.1,3.5-0.2,5.3c-0.1,1-0.3,2-0.6,2.9c-0.2-0.8-0.4-1.6-0.4-2.4
			c-0.2-1.6,0.1-3.2-0.1-4.7c-0.4,1.1-0.1,2.2-0.2,3.3c0,1.7-0.4,3.4-0.8,5.1c-0.1,0.8-0.4,1.5-0.7,2.2c-0.2-1.4,0-2.8-0.2-4.2
			c-0.4,1.1-0.1,2.2-0.2,3.3c-0.1,0.8-0.5,1.6-0.3,2.5c0.3,1.5,0,3.1-0.2,4.6c0.8,0.6,1.7,1.1,2.7,1.5c-0.8,0.6-1.7,1.2-2.6,1.7
			c0.5,0.8,1,1.6,0.9,2.6c0,2.4,0,4.8,0,7.2c0.1,1.9-0.4,3.7-0.2,5.5c-0.4-0.6-1-1.3-1-2.1c0-1-0.3-2-0.3-3.1s-0.1-2.2-0.1-3.4
			c0-0.8-0.1-1.5-0.2-2.3c-0.7,0.7-0.5,1.8-0.5,2.7c-0.1,2.2-0.3,4.4-0.5,6.6c-0.3,0.8-0.9,1.6-1.3,2.3c-2.4,3.9-4.7,7.9-7,11.8
			c-0.2-1.1-0.3-2.3-0.3-3.4c0-2.5,0-4.9,0-7.4c-0.1-1.4,1-2.5,1.2-3.9c-0.3,0-0.6-0.1-0.8-0.1c-0.1-1.1,0.2-2.2,0.1-3.3
			c-0.6-1.4-1.4-2.6-2-4c-0.3-0.6-0.2-1.4-0.3-2c0-1.3-0.2-2.5-0.4-3.8c-0.4,1.2-0.3,2.5-0.4,3.8c-0.3-0.7-0.6-1.3-1-1.9
			c-0.5-0.6-1.1-1.1-1.7-1.6c0.1-0.9-0.3-1.7-0.5-2.5c-0.1-1,0.5-1.9,0.9-2.7c-0.4-0.4-1-0.8-1.1-1.5c-0.1-1.3,0.9-2.5,0.7-3.8
			c-0.5-1.1-1.8-1.7-2.3-2.8c-0.4-1.5-0.1-3,0-4.5c-0.1-1.2-0.4-2.4-0.4-3.6c-0.1,0-0.2,0-0.2,0c0,1.2-0.3,2.4-0.4,3.6
			c0.1,1.5,0.5,3,0,4.4c-0.5,1.1-1.8,1.7-2.3,2.8c-0.2,1.3,0.7,2.5,0.7,3.8c0,0.7-0.6,1-1,1.5c0.4,0.7,0.8,1.5,0.9,2.3
			c0,0.6-0.2,1.2-0.3,1.8c-0.2,0.5-0.3,1-0.6,1.4c-0.4,0.5-0.9,0.9-1.3,1.4s-0.7,1.1-1,1.7c0-1.2-0.2-2.4-0.3-3.6
			c-0.2,0.9-0.4,1.9-0.4,2.9c0,0.8,0,1.6-0.2,2.4c-0.4,1.4-1.4,2.6-2,3.9c-0.2,0.4-0.1,0.8-0.1,1.3c0.1,0.8,0.1,1.6,0.1,2.4
			c-0.3,0-0.6,0.1-0.8,0.1c0.2,1.4,1.3,2.5,1.2,3.9c0,1.5,0,3,0,4.5C91.4,103.5,91.3,103.2,91.2,103z M152.7,6c-0.2,0-0.5,0-0.7,0
			C152.2,6,152.5,6,152.7,6L152.7,6z M191.2,112.6c0,1.9,0,3.7,0,5.6c-1,0-1.9,0-2.9,0c0-1.9,0-3.7,0-5.6
			C189.2,112.6,190.2,112.6,191.2,112.6z M188.9,99.7c0.1-0.8,1.6-0.8,1.7,0c0.1,1.3,0,2.5,0,3.8c-0.6,0-1.2,0-1.8,0
			C188.8,102.3,188.7,101,188.9,99.7z M196.9,119.7c-0.3-0.1-0.3-0.3,0-0.5C197.2,119.4,197.2,119.6,196.9,119.7z M197.2,118.2
			c0.4-0.3,0.5,0.6,0.1,0.6C196.9,118.9,197,118.4,197.2,118.2z M98.7,80.5c0-0.5,0-1,0.1-1.5c0.1,0,0.4-0.1,0.5-0.1
			c0,0.5,0,1,0,1.5C99.2,80.5,98.8,80.5,98.7,80.5z M99.9,80.5c0-0.5,0-1,0-1.5c0.1,0,0.4,0.1,0.5,0.1c0,0.5,0,1,0.1,1.5
			C100.4,80.5,100.1,80.5,99.9,80.5z"/>
	</g>
	<g>
		<path class="tt0" d="M79.7,29.4c0,0-2.6-0.8-4.3,0.4c-1.7,1.1-8.1,6.1-8.1,6.1l-5-1.2c0.2-0.4,0.2-0.9-0.1-1.3l-1-1.3
			c-0.4-0.5-1.1-0.6-1.7-0.2l-2,1.5c-0.1,0.1-0.1,0.1-0.2,0.2l-10.4-2.5c0,0-6.7-1.8-7.5,1L59,42.4l-10.2,8l-4.4-1
			c0,0-2-0.5-2.2,0.3l4.7,2.5c-0.6,0.6-0.7,1.5-0.1,2.2c0.5,0.7,1.4,0.8,2.2,0.4l1.2,5.2c0.8,0.1,0.8-2,0.8-2l0.2-4.6l10.4-7.6
			c0,0,0,0,0,0.1l4.9,21.4c2.8-0.1,2.9-7,2.9-7l0.3-10.2c0.2,0,0.3-0.1,0.5-0.2l2-1.5c0.5-0.4,0.6-1.1,0.2-1.7l-1-1.3
			C71.2,45.2,71,45,70.7,45l0,0l0,0c-0.3,0-0.5,0-0.8,0.2l0.2-5.2v-0.4c0,0,6.6-4.8,8.1-6.1C79.8,32.2,79.7,29.4,79.7,29.4z"/>
	</g>
</g>
<g id="Layer_1_2_">
</g>
</svg>
